<mxfile host="app.diagrams.net" modified="2022-07-20T23:52:27.035Z" agent="5.0 (Macintosh)" etag="jLy5bSg4ErxjFsOXd3CI" version="17.1.2" type="github">
  <diagram id="BywHLoRQz3fkk1G3sWwl" name="Page-1">
    <mxGraphModel dx="1002" dy="571" grid="1" gridSize="10" guides="1" tooltips="1" connect="1" arrows="1" fold="1" page="1" pageScale="1" pageWidth="827" pageHeight="1169" math="0" shadow="0">
      <root>
        <mxCell id="0" />
        <mxCell id="1" parent="0" />
        <mxCell id="kHvv3OyTEOI5HM_wSSVV-1" value="" style="shape=flexArrow;endArrow=classic;html=1;rounded=0;startArrow=none;" parent="1" source="kHvv3OyTEOI5HM_wSSVV-18" edge="1">
          <mxGeometry width="50" height="50" relative="1" as="geometry">
            <mxPoint x="75.99961183640698" y="255.10791087652092" as="sourcePoint" />
            <mxPoint x="756" y="260" as="targetPoint" />
          </mxGeometry>
        </mxCell>
        <mxCell id="kHvv3OyTEOI5HM_wSSVV-2" value="" style="rounded=0;whiteSpace=wrap;html=1;" parent="1" vertex="1">
          <mxGeometry x="116" y="210" width="100" height="50" as="geometry" />
        </mxCell>
        <mxCell id="kHvv3OyTEOI5HM_wSSVV-3" value="CE guy" style="shape=umlActor;verticalLabelPosition=bottom;verticalAlign=top;html=1;outlineConnect=0;" parent="1" vertex="1">
          <mxGeometry x="56" y="235" width="20" height="30" as="geometry" />
        </mxCell>
        <mxCell id="kHvv3OyTEOI5HM_wSSVV-4" value="&lt;h2 style=&quot;margin: 23px 10px 25px 5px; padding: 0px; position: relative; zoom: 1; color: rgb(51, 51, 51); font-size: 24px; font-family: Arial, sans-serif; text-size-adjust: auto;&quot; class=&quot;wordbook-js&quot;&gt;&lt;span class=&quot;keyword&quot;&gt;suffered&lt;/span&gt;&lt;/h2&gt;&lt;p&gt;Customer&#39;s environment is complex and resource limited and. some hardware cannot meet the requirement of OCP, we have to aprove it to let customer agree on.&lt;/p&gt;" style="text;html=1;strokeColor=none;fillColor=none;spacing=5;spacingTop=-20;whiteSpace=wrap;overflow=hidden;rounded=0;" parent="1" vertex="1">
          <mxGeometry x="76" y="41" width="190" height="150" as="geometry" />
        </mxCell>
        <mxCell id="kHvv3OyTEOI5HM_wSSVV-5" value="&lt;b&gt;4/4 - 4/8&lt;br&gt;&lt;font color=&quot;#cc0000&quot;&gt;failure&lt;/font&gt;&lt;br&gt;&lt;/b&gt;" style="text;html=1;strokeColor=none;fillColor=none;align=center;verticalAlign=middle;whiteSpace=wrap;rounded=0;" parent="1" vertex="1">
          <mxGeometry x="137" y="210" width="60" height="50" as="geometry" />
        </mxCell>
        <mxCell id="kHvv3OyTEOI5HM_wSSVV-6" value="&lt;b&gt;&lt;font color=&quot;#000000&quot;&gt;5/6 - 5/9&lt;/font&gt;&lt;/b&gt;" style="rounded=0;whiteSpace=wrap;html=1;fontColor=#CC0000;" parent="1" vertex="1">
          <mxGeometry x="276" y="250" width="60" height="60" as="geometry" />
        </mxCell>
        <mxCell id="kHvv3OyTEOI5HM_wSSVV-7" value="" style="shape=flexArrow;endArrow=none;html=1;rounded=0;startArrow=none;" parent="1" target="kHvv3OyTEOI5HM_wSSVV-6" edge="1">
          <mxGeometry width="50" height="50" relative="1" as="geometry">
            <mxPoint x="75.99961183640698" y="255.10791087652092" as="sourcePoint" />
            <mxPoint x="756" y="260" as="targetPoint" />
          </mxGeometry>
        </mxCell>
        <mxCell id="kHvv3OyTEOI5HM_wSSVV-8" value="&lt;h2 style=&quot;margin: 23px 10px 25px 5px; padding: 0px; position: relative; zoom: 1; color: rgb(51, 51, 51); font-size: 24px; font-family: Arial, sans-serif; text-size-adjust: auto;&quot; class=&quot;wordbook-js&quot;&gt;&lt;span class=&quot;keyword&quot;&gt;stage success&lt;/span&gt;&lt;/h2&gt;&lt;p&gt;After customer renew their envronment, CE engage again and complete installation of CP4D, DO, PA, CA, ODM in 3 days, customer is happy&lt;/p&gt;" style="text;html=1;strokeColor=none;fillColor=none;spacing=5;spacingTop=-20;whiteSpace=wrap;overflow=hidden;rounded=0;" parent="1" vertex="1">
          <mxGeometry x="236" y="320" width="190" height="150" as="geometry" />
        </mxCell>
        <mxCell id="kHvv3OyTEOI5HM_wSSVV-9" value="" style="rounded=0;whiteSpace=wrap;html=1;fontColor=#CC0000;" parent="1" vertex="1">
          <mxGeometry x="381" y="250" width="5" height="40" as="geometry" />
        </mxCell>
        <mxCell id="kHvv3OyTEOI5HM_wSSVV-10" value="" style="shape=flexArrow;endArrow=none;html=1;rounded=0;startArrow=none;" parent="1" source="kHvv3OyTEOI5HM_wSSVV-6" target="kHvv3OyTEOI5HM_wSSVV-9" edge="1">
          <mxGeometry width="50" height="50" relative="1" as="geometry">
            <mxPoint x="336" y="278.66666666666663" as="sourcePoint" />
            <mxPoint x="756" y="260" as="targetPoint" />
          </mxGeometry>
        </mxCell>
        <mxCell id="kHvv3OyTEOI5HM_wSSVV-11" value="" style="rounded=0;whiteSpace=wrap;html=1;fontColor=#CC0000;" parent="1" vertex="1">
          <mxGeometry x="411" y="250" width="5" height="40" as="geometry" />
        </mxCell>
        <mxCell id="kHvv3OyTEOI5HM_wSSVV-12" value="" style="rounded=0;whiteSpace=wrap;html=1;fontColor=#CC0000;" parent="1" vertex="1">
          <mxGeometry x="436" y="240" width="5" height="40" as="geometry" />
        </mxCell>
        <mxCell id="kHvv3OyTEOI5HM_wSSVV-13" value="" style="rounded=0;whiteSpace=wrap;html=1;fontColor=#CC0000;" parent="1" vertex="1">
          <mxGeometry x="466" y="250" width="5" height="40" as="geometry" />
        </mxCell>
        <mxCell id="kHvv3OyTEOI5HM_wSSVV-14" value="" style="shape=flexArrow;endArrow=none;html=1;rounded=0;startArrow=none;" parent="1" source="kHvv3OyTEOI5HM_wSSVV-9" target="kHvv3OyTEOI5HM_wSSVV-13" edge="1">
          <mxGeometry width="50" height="50" relative="1" as="geometry">
            <mxPoint x="386" y="269.93288590604027" as="sourcePoint" />
            <mxPoint x="756" y="260" as="targetPoint" />
          </mxGeometry>
        </mxCell>
        <mxCell id="kHvv3OyTEOI5HM_wSSVV-15" value="" style="rounded=0;whiteSpace=wrap;html=1;fontColor=#CC0000;" parent="1" vertex="1">
          <mxGeometry x="496" y="250" width="5" height="40" as="geometry" />
        </mxCell>
        <mxCell id="kHvv3OyTEOI5HM_wSSVV-16" value="" style="rounded=0;whiteSpace=wrap;html=1;fontColor=#CC0000;" parent="1" vertex="1">
          <mxGeometry x="526" y="240" width="5" height="40" as="geometry" />
        </mxCell>
        <mxCell id="kHvv3OyTEOI5HM_wSSVV-17" value="&lt;h2 style=&quot;margin: 23px 10px 25px 5px; padding: 0px; position: relative; zoom: 1; color: rgb(51, 51, 51); font-size: 24px; font-family: Arial, sans-serif; text-size-adjust: auto;&quot; class=&quot;wordbook-js&quot;&gt;&lt;span class=&quot;keyword&quot;&gt;&amp;nbsp; &amp;nbsp; in progress&lt;/span&gt;&lt;/h2&gt;&lt;p&gt;&lt;/p&gt;&lt;ul&gt;&lt;li&gt;&lt;span style=&quot;background-color: initial;&quot;&gt;Answer customer question&lt;/span&gt;&lt;/li&gt;&lt;li&gt;&lt;span style=&quot;background-color: initial;&quot;&gt;Setup trainning for customer&lt;/span&gt;&lt;/li&gt;&lt;li&gt;&lt;span style=&quot;background-color: initial;&quot;&gt;Help on integration with customer&#39;s app&lt;/span&gt;&lt;/li&gt;&lt;/ul&gt;&lt;p&gt;&lt;/p&gt;" style="text;html=1;strokeColor=none;fillColor=none;spacing=5;spacingTop=-20;whiteSpace=wrap;overflow=hidden;rounded=0;" parent="1" vertex="1">
          <mxGeometry x="341" y="41" width="190" height="150" as="geometry" />
        </mxCell>
        <mxCell id="kHvv3OyTEOI5HM_wSSVV-18" value="" style="verticalLabelPosition=bottom;verticalAlign=top;html=1;shape=mxgraph.basic.8_point_star;fontColor=#000000;" parent="1" vertex="1">
          <mxGeometry x="596" y="220" width="70" height="70" as="geometry" />
        </mxCell>
        <mxCell id="kHvv3OyTEOI5HM_wSSVV-19" value="" style="shape=flexArrow;endArrow=none;html=1;rounded=0;startArrow=none;" parent="1" source="kHvv3OyTEOI5HM_wSSVV-13" target="kHvv3OyTEOI5HM_wSSVV-18" edge="1">
          <mxGeometry width="50" height="50" relative="1" as="geometry">
            <mxPoint x="471" y="269.9130434782609" as="sourcePoint" />
            <mxPoint x="756" y="260" as="targetPoint" />
          </mxGeometry>
        </mxCell>
        <mxCell id="kHvv3OyTEOI5HM_wSSVV-20" value="&lt;font style=&quot;&quot; color=&quot;#cc0000&quot;&gt;&lt;b&gt;6/21&lt;/b&gt;&lt;br&gt;&lt;b&gt;Accident&lt;/b&gt;&lt;br&gt;&lt;/font&gt;" style="text;html=1;strokeColor=none;fillColor=none;align=center;verticalAlign=middle;whiteSpace=wrap;rounded=0;fontColor=#000000;" parent="1" vertex="1">
          <mxGeometry x="601" y="240" width="60" height="30" as="geometry" />
        </mxCell>
        <mxCell id="kHvv3OyTEOI5HM_wSSVV-21" value="&lt;h2 style=&quot;margin: 23px 10px 25px 5px; padding: 0px; position: relative; zoom: 1; color: rgb(51, 51, 51); font-size: 24px; font-family: Arial, sans-serif; text-size-adjust: auto;&quot; class=&quot;wordbook-js&quot;&gt;&lt;span class=&quot;keyword&quot;&gt;&amp;nbsp;power off !&lt;/span&gt;&lt;/h2&gt;&lt;p&gt;&lt;/p&gt;Customer&#39;s environment is powered off by accident, OCP/CP4D cannot startup and there is only &lt;b&gt;one day&lt;/b&gt; before customer&#39;s finally internel preview&lt;br&gt;&lt;p&gt;&lt;/p&gt;" style="text;html=1;strokeColor=none;fillColor=none;spacing=5;spacingTop=-20;whiteSpace=wrap;overflow=hidden;rounded=0;" parent="1" vertex="1">
          <mxGeometry x="516" y="320" width="190" height="150" as="geometry" />
        </mxCell>
        <mxCell id="kHvv3OyTEOI5HM_wSSVV-22" value="" style="rounded=0;whiteSpace=wrap;html=1;fontColor=#CC0000;" parent="1" vertex="1">
          <mxGeometry x="676" y="235" width="5" height="40" as="geometry" />
        </mxCell>
        <mxCell id="kHvv3OyTEOI5HM_wSSVV-23" value="" style="verticalLabelPosition=bottom;verticalAlign=top;html=1;shape=mxgraph.basic.smiley;fontColor=#CC0000;" parent="1" vertex="1">
          <mxGeometry x="663.5" y="280" width="30" height="30" as="geometry" />
        </mxCell>
        <mxCell id="kHvv3OyTEOI5HM_wSSVV-24" value="&lt;font color=&quot;#000000&quot;&gt;&lt;b&gt;6/22&lt;/b&gt;&lt;br&gt;restored&lt;br&gt;&lt;/font&gt;" style="text;html=1;strokeColor=none;fillColor=none;align=center;verticalAlign=middle;whiteSpace=wrap;rounded=0;fontColor=#CC0000;" parent="1" vertex="1">
          <mxGeometry x="648.5" y="205" width="60" height="30" as="geometry" />
        </mxCell>
        <mxCell id="WPRUfjHQ64DDmEAXOKso-1" value="" style="verticalLabelPosition=bottom;verticalAlign=top;html=1;shape=mxgraph.basic.tick" vertex="1" parent="1">
          <mxGeometry x="710" y="280" width="20" height="20" as="geometry" />
        </mxCell>
        <mxCell id="WPRUfjHQ64DDmEAXOKso-2" value="" style="rounded=0;whiteSpace=wrap;html=1;fontColor=#CC0000;" vertex="1" parent="1">
          <mxGeometry x="717.5" y="235" width="5" height="40" as="geometry" />
        </mxCell>
        <mxCell id="WPRUfjHQ64DDmEAXOKso-3" value="&lt;h2 style=&quot;margin: 23px 10px 25px 5px ; padding: 0px ; position: relative ; zoom: 1 ; color: rgb(51 , 51 , 51) ; font-size: 24px ; font-family: &amp;#34;arial&amp;#34; , sans-serif&quot; class=&quot;wordbook-js&quot;&gt;&lt;span class=&quot;keyword&quot;&gt;&amp;nbsp; &amp;nbsp; Bye&lt;br&gt;&lt;/span&gt;&lt;/h2&gt;&lt;p&gt;&lt;/p&gt;&lt;ul&gt;&lt;li&gt;6/22 the environment is restored and the preview gone well&lt;/li&gt;&lt;li style=&quot;line-height: 20px ; margin-bottom: 6px&quot;&gt;6/28 &lt;span class=&quot;def&quot; style=&quot;color: rgb(49 , 49 , 49)&quot;&gt;business process started, CE quit...&lt;br&gt;&lt;/span&gt;&lt;/li&gt;&lt;/ul&gt;&lt;p&gt;&lt;/p&gt;" style="text;html=1;strokeColor=none;fillColor=none;spacing=5;spacingTop=-20;whiteSpace=wrap;overflow=hidden;rounded=0;" vertex="1" parent="1">
          <mxGeometry x="596" y="41" width="190" height="150" as="geometry" />
        </mxCell>
        <mxCell id="WPRUfjHQ64DDmEAXOKso-4" value="&lt;font color=&quot;#000000&quot;&gt;&lt;b&gt;6/28&lt;/b&gt;&lt;br&gt;business&lt;br&gt;&lt;/font&gt;" style="text;html=1;strokeColor=none;fillColor=none;align=center;verticalAlign=middle;whiteSpace=wrap;rounded=0;fontColor=#CC0000;" vertex="1" parent="1">
          <mxGeometry x="706" y="205" width="60" height="30" as="geometry" />
        </mxCell>
      </root>
    </mxGraphModel>
  </diagram>
</mxfile>
